<svg width="300" height="300" viewBox="0 0 300 300" fill="none" xmlns="http://www.w3.org/2000/svg">
<path d="M150 296.484C230.901 296.484 296.484 230.901 296.484 150C296.484 69.0989 230.901 3.51562 150 3.51562C69.0989 3.51562 3.51562 69.0989 3.51562 150C3.51562 230.901 69.0989 296.484 150 296.484Z" fill="#333333" stroke="black" stroke-width="3"/>
<path d="M110.156 133.594H51.5625V168.75H110.156V133.594Z" fill="#BDD7EA"/>
<path d="M180.469 133.594H121.875V168.75H180.469V133.594Z" fill="#C0F0F4"/>
<path d="M250.781 180.469H192.188V215.625H250.781V180.469Z" fill="#C0F0F4"/>
<path d="M110.156 86.7188H51.5625V121.875H110.156V86.7188Z" fill="#F0C9D7"/>
<path d="M180.469 39.8438H121.875V75H180.469V39.8438Z" fill="#FFDDD1"/>
<path d="M250.781 86.7188H192.188V121.875H250.781V86.7188Z" fill="#FFDDD1"/>
<path d="M110.156 180.469H51.5625V215.625H110.156V180.469Z" fill="#D4C2E1"/>
<path d="M180.469 227.344H121.875V262.5H180.469V227.344Z" fill="#D4C2E1"/>
</svg>
